# xmcd
#
# Track frame offsets:
#	150
#	32276
#	63560
#	102888
#	133161
#	166565
#	203621
#	227666
#	263329
#	300102
#
# Disc length: 4446 seconds
#
# Revision: 0
# Processed by: cddbd v1.5.2PL0 Copyright (c) Steve Scherf et al.
# Submitted via: EasyCDDAExtractor 9.0.0.1
#
DISCID=6a115c0a
DTITLE=Goa 22 [CD1] - V
DYEAR=2007
DGENRE=Electronic
TTITLE0=Quantum - Janata Express (Featuring Keren Porat)
TTITLE1=Rocky Vs. Galactika - Global Air (Monster Edit)
TTITLE2=AMD - Slightly Turbo
TTITLE3=Vibe Tribe - Kick The Bass
TTITLE4=Planet B.E.N. Vs. Didrapest - C-Data
TTITLE5=Insomnia - The Real Thing
TTITLE6=Space Vision - Master Jedi (Unreleased)
TTITLE7=Lucy - Flash Damage (Unreleased)
TTITLE8=Tristan - Terrordactyl
TTITLE9=Magoon - Future (Unreleased)
EXTD=
EXTT0=
EXTT1=
EXTT2=
EXTT3=
EXTT4=
EXTT5=
EXTT6=
EXTT7=
EXTT8=
EXTT9=
PLAYORDER=
